<?xml version="1.0" encoding="UTF-8"?>
<svg id="f52a33bb-f0f0-440f-a6eb-12ce17e2b83a" width="220.43" height="170.71" data-name="Layer 1" version="1.1" viewBox="0 0 220.43 170.71" xmlns="http://www.w3.org/2000/svg">
  <g transform="translate(-451.96 -481.55)">
    <path transform="translate(-112.81,-99.39)" d="m723.79 619.35c0 16.7 8.56 17.68 22.83 30.23s22.82-13.53 22.82-30.23-10.22-30.24-22.82-30.24-22.83 13.54-22.83 30.24z" fill="#915766"/>
    <path transform="translate(-112.81,-99.39)" d="m614.47 727.6s-2 17 7 18a115.81 115.81 0 0 0 13.2 0.43 14.41 14.41 0 0 0 12.07-22l-0.27-0.42c-9-14.01-32 3.99-32 3.99z" fill="#915766"/>
    <path transform="translate(-112.81,-99.39)" d="m619.47 713.6s22 29 55 3-7-38-7-38h-42l-25 11z" fill="#b56d7e"/>
    <path transform="translate(-112.81,-99.39)" d="m709.47 689.6s10 12 19 11c7.22-0.8 21.52 6.12 19.15 18.7a14.22 14.22 0 0 1-16.62 11.48 11.39 11.39 0 0 1-8.53-7.18s-32 2-31-7 18-27 18-27z" fill="#915766"/>
    <path transform="translate(-112.81,-99.39)" d="m627 695.1s13 20 0 33-27 15-27 15 5 9-14 8-25-7-19-16 21-19 18-26-7-22-1-31a33.08 33.08 0 0 1-6.3-6.94c-5.31-8.08 5.32-17.18 12.67-10.89l5.63 4.83s17-14 54-7c0 0 15-1 18-12 0 0-16-35 26-61a50.28 50.28 0 0 1 24-4c14 1 29 2 39 24 0 0 8.17 15 17.77 20.78a21.15 21.15 0 0 1 9.73 14.74c2.89 17.23-0.77 44.63-59.5 30.48 0 0-4.5 36.5-32.5 51.5 0 0-2 10 0 13s12 17-4 16c-8-0.49-14.17-0.5-18.42-0.37a10 10 0 0 1-8.75-15.36c0.05-0.09 0.11-0.18 0.17-0.27s3-14-7-25l-2-12z" fill="#9c5e6d"/>
    <ellipse cx="655.16" cy="537.72" rx="13" ry="5" fill="#915766"/>
    <path transform="translate(-112.81,-99.39)" d="m667.47 647.6s30 33 57 24" fill="none" stroke="#3f3d56" stroke-miterlimit="10"/>
    <path transform="translate(-112.81,-99.39)" d="m703.79 619.35c0 16.7-8.55 17.68-22.82 30.23s-22.82-13.53-22.82-30.23 10.22-30.24 22.82-30.24 22.82 13.54 22.82 30.24z" fill="#915766"/>
  </g>
</svg>
